<mxfile host="app.diagrams.net" agent="Mozilla/5.0 (Windows NT 10.0; Win64; x64) AppleWebKit/537.36 (KHTML, like Gecko) Chrome/129.0.0.0 Safari/537.36" version="24.7.17">
  <diagram name="第 1 页" id="hxwQuhTdLq9RxRS_4-QQ">
    <mxGraphModel dx="1434" dy="1907" grid="1" gridSize="10" guides="1" tooltips="1" connect="1" arrows="1" fold="1" page="1" pageScale="1" pageWidth="827" pageHeight="1169" math="0" shadow="0">
      <root>
        <mxCell id="0" />
        <mxCell id="1" parent="0" />
        <mxCell id="ahFYld43kp6xVh79h3Dh-58" value="gated_session_s" style="swimlane;fontStyle=0;childLayout=stackLayout;horizontal=1;startSize=26;horizontalStack=0;resizeParent=1;resizeParentMax=0;resizeLast=0;collapsible=1;marginBottom=0;align=center;fontSize=14;" parent="1" vertex="1">
          <mxGeometry x="1220" y="40" width="160" height="266" as="geometry" />
        </mxCell>
        <mxCell id="VzqfOitDqZEZQC-ATVFe-26" value="pass" style="text;strokeColor=none;fillColor=none;spacingLeft=4;spacingRight=4;overflow=hidden;rotatable=0;points=[[0,0.5],[1,0.5]];portConstraint=eastwest;fontSize=12;whiteSpace=wrap;html=1;" vertex="1" parent="ahFYld43kp6xVh79h3Dh-58">
          <mxGeometry y="26" width="160" height="30" as="geometry" />
        </mxCell>
        <mxCell id="ahFYld43kp6xVh79h3Dh-59" value="virual_addr" style="text;strokeColor=none;fillColor=none;spacingLeft=4;spacingRight=4;overflow=hidden;rotatable=0;points=[[0,0.5],[1,0.5]];portConstraint=eastwest;fontSize=12;whiteSpace=wrap;html=1;" parent="ahFYld43kp6xVh79h3Dh-58" vertex="1">
          <mxGeometry y="56" width="160" height="30" as="geometry" />
        </mxCell>
        <mxCell id="ahFYld43kp6xVh79h3Dh-60" value="subpool_index" style="text;strokeColor=none;fillColor=none;spacingLeft=4;spacingRight=4;overflow=hidden;rotatable=0;points=[[0,0.5],[1,0.5]];portConstraint=eastwest;fontSize=12;whiteSpace=wrap;html=1;" parent="ahFYld43kp6xVh79h3Dh-58" vertex="1">
          <mxGeometry y="86" width="160" height="30" as="geometry" />
        </mxCell>
        <mxCell id="ahFYld43kp6xVh79h3Dh-61" value="devid" style="text;strokeColor=none;fillColor=none;spacingLeft=4;spacingRight=4;overflow=hidden;rotatable=0;points=[[0,0.5],[1,0.5]];portConstraint=eastwest;fontSize=12;whiteSpace=wrap;html=1;" parent="ahFYld43kp6xVh79h3Dh-58" vertex="1">
          <mxGeometry y="116" width="160" height="30" as="geometry" />
        </mxCell>
        <mxCell id="VzqfOitDqZEZQC-ATVFe-25" value="bandwidth" style="text;strokeColor=none;fillColor=none;spacingLeft=4;spacingRight=4;overflow=hidden;rotatable=0;points=[[0,0.5],[1,0.5]];portConstraint=eastwest;fontSize=12;whiteSpace=wrap;html=1;" vertex="1" parent="ahFYld43kp6xVh79h3Dh-58">
          <mxGeometry y="146" width="160" height="30" as="geometry" />
        </mxCell>
        <mxCell id="VzqfOitDqZEZQC-ATVFe-24" value="bucket" style="text;strokeColor=none;fillColor=none;spacingLeft=4;spacingRight=4;overflow=hidden;rotatable=0;points=[[0,0.5],[1,0.5]];portConstraint=eastwest;fontSize=12;whiteSpace=wrap;html=1;" vertex="1" parent="ahFYld43kp6xVh79h3Dh-58">
          <mxGeometry y="176" width="160" height="30" as="geometry" />
        </mxCell>
        <mxCell id="VzqfOitDqZEZQC-ATVFe-1" value="aclptr" style="text;strokeColor=none;fillColor=none;spacingLeft=4;spacingRight=4;overflow=hidden;rotatable=0;points=[[0,0.5],[1,0.5]];portConstraint=eastwest;fontSize=12;whiteSpace=wrap;html=1;" vertex="1" parent="ahFYld43kp6xVh79h3Dh-58">
          <mxGeometry y="206" width="160" height="30" as="geometry" />
        </mxCell>
        <mxCell id="VzqfOitDqZEZQC-ATVFe-2" value="aclblackptr" style="text;strokeColor=none;fillColor=none;spacingLeft=4;spacingRight=4;overflow=hidden;rotatable=0;points=[[0,0.5],[1,0.5]];portConstraint=eastwest;fontSize=12;whiteSpace=wrap;html=1;" vertex="1" parent="ahFYld43kp6xVh79h3Dh-58">
          <mxGeometry y="236" width="160" height="30" as="geometry" />
        </mxCell>
        <mxCell id="ahFYld43kp6xVh79h3Dh-63" value="ngx_slab_pool_t" style="swimlane;fontStyle=0;childLayout=stackLayout;horizontal=1;startSize=26;horizontalStack=0;resizeParent=1;resizeParentMax=0;resizeLast=0;collapsible=1;marginBottom=0;align=center;fontSize=14;" parent="1" vertex="1">
          <mxGeometry x="50" y="180" width="160" height="56" as="geometry" />
        </mxCell>
        <mxCell id="ahFYld43kp6xVh79h3Dh-64" value="data" style="text;strokeColor=none;fillColor=none;spacingLeft=4;spacingRight=4;overflow=hidden;rotatable=0;points=[[0,0.5],[1,0.5]];portConstraint=eastwest;fontSize=12;whiteSpace=wrap;html=1;" parent="ahFYld43kp6xVh79h3Dh-63" vertex="1">
          <mxGeometry y="26" width="160" height="30" as="geometry" />
        </mxCell>
        <mxCell id="ahFYld43kp6xVh79h3Dh-67" value="gated_ipool_s" style="swimlane;fontStyle=0;childLayout=stackLayout;horizontal=1;startSize=26;horizontalStack=0;resizeParent=1;resizeParentMax=0;resizeLast=0;collapsible=1;marginBottom=0;align=center;fontSize=14;" parent="1" vertex="1">
          <mxGeometry x="320" y="240" width="160" height="236" as="geometry" />
        </mxCell>
        <mxCell id="ahFYld43kp6xVh79h3Dh-68" value="subnet_pools" style="text;strokeColor=none;fillColor=none;spacingLeft=4;spacingRight=4;overflow=hidden;rotatable=0;points=[[0,0.5],[1,0.5]];portConstraint=eastwest;fontSize=12;whiteSpace=wrap;html=1;" parent="ahFYld43kp6xVh79h3Dh-67" vertex="1">
          <mxGeometry y="26" width="160" height="30" as="geometry" />
        </mxCell>
        <mxCell id="ahFYld43kp6xVh79h3Dh-69" value="rbtree" style="text;strokeColor=none;fillColor=none;spacingLeft=4;spacingRight=4;overflow=hidden;rotatable=0;points=[[0,0.5],[1,0.5]];portConstraint=eastwest;fontSize=12;whiteSpace=wrap;html=1;" parent="ahFYld43kp6xVh79h3Dh-67" vertex="1">
          <mxGeometry y="56" width="160" height="30" as="geometry" />
        </mxCell>
        <mxCell id="ahFYld43kp6xVh79h3Dh-70" value="avail_rbtree" style="text;strokeColor=none;fillColor=none;spacingLeft=4;spacingRight=4;overflow=hidden;rotatable=0;points=[[0,0.5],[1,0.5]];portConstraint=eastwest;fontSize=12;whiteSpace=wrap;html=1;" parent="ahFYld43kp6xVh79h3Dh-67" vertex="1">
          <mxGeometry y="86" width="160" height="30" as="geometry" />
        </mxCell>
        <mxCell id="ahFYld43kp6xVh79h3Dh-71" value="v4_primarypool_cnt" style="text;strokeColor=none;fillColor=none;spacingLeft=4;spacingRight=4;overflow=hidden;rotatable=0;points=[[0,0.5],[1,0.5]];portConstraint=eastwest;fontSize=12;whiteSpace=wrap;html=1;" parent="ahFYld43kp6xVh79h3Dh-67" vertex="1">
          <mxGeometry y="116" width="160" height="30" as="geometry" />
        </mxCell>
        <mxCell id="ahFYld43kp6xVh79h3Dh-72" value="v6_primarypool_cnt" style="text;strokeColor=none;fillColor=none;spacingLeft=4;spacingRight=4;overflow=hidden;rotatable=0;points=[[0,0.5],[1,0.5]];portConstraint=eastwest;fontSize=12;whiteSpace=wrap;html=1;" parent="ahFYld43kp6xVh79h3Dh-67" vertex="1">
          <mxGeometry y="146" width="160" height="30" as="geometry" />
        </mxCell>
        <mxCell id="ahFYld43kp6xVh79h3Dh-73" value="ip6_pools" style="text;strokeColor=none;fillColor=none;spacingLeft=4;spacingRight=4;overflow=hidden;rotatable=0;points=[[0,0.5],[1,0.5]];portConstraint=eastwest;fontSize=12;whiteSpace=wrap;html=1;" parent="ahFYld43kp6xVh79h3Dh-67" vertex="1">
          <mxGeometry y="176" width="160" height="30" as="geometry" />
        </mxCell>
        <mxCell id="ahFYld43kp6xVh79h3Dh-74" value="vip_queue" style="text;strokeColor=none;fillColor=none;spacingLeft=4;spacingRight=4;overflow=hidden;rotatable=0;points=[[0,0.5],[1,0.5]];portConstraint=eastwest;fontSize=12;whiteSpace=wrap;html=1;" parent="ahFYld43kp6xVh79h3Dh-67" vertex="1">
          <mxGeometry y="206" width="160" height="30" as="geometry" />
        </mxCell>
        <mxCell id="ahFYld43kp6xVh79h3Dh-75" value="" style="edgeStyle=orthogonalEdgeStyle;rounded=0;orthogonalLoop=1;jettySize=auto;html=1;entryX=0.5;entryY=0;entryDx=0;entryDy=0;" parent="1" source="ahFYld43kp6xVh79h3Dh-64" target="ahFYld43kp6xVh79h3Dh-67" edge="1">
          <mxGeometry relative="1" as="geometry" />
        </mxCell>
        <mxCell id="ahFYld43kp6xVh79h3Dh-76" value="gated_sub_ipool_t" style="swimlane;fontStyle=0;childLayout=stackLayout;horizontal=1;startSize=26;horizontalStack=0;resizeParent=1;resizeParentMax=0;resizeLast=0;collapsible=1;marginBottom=0;align=center;fontSize=14;" parent="1" vertex="1">
          <mxGeometry x="677" y="210" width="160" height="206" as="geometry" />
        </mxCell>
        <mxCell id="ahFYld43kp6xVh79h3Dh-77" value="avail_rbtree" style="text;strokeColor=none;fillColor=none;spacingLeft=4;spacingRight=4;overflow=hidden;rotatable=0;points=[[0,0.5],[1,0.5]];portConstraint=eastwest;fontSize=12;whiteSpace=wrap;html=1;" parent="ahFYld43kp6xVh79h3Dh-76" vertex="1">
          <mxGeometry y="26" width="160" height="30" as="geometry" />
        </mxCell>
        <mxCell id="ahFYld43kp6xVh79h3Dh-78" value="queue" style="text;strokeColor=none;fillColor=none;spacingLeft=4;spacingRight=4;overflow=hidden;rotatable=0;points=[[0,0.5],[1,0.5]];portConstraint=eastwest;fontSize=12;whiteSpace=wrap;html=1;" parent="ahFYld43kp6xVh79h3Dh-76" vertex="1">
          <mxGeometry y="56" width="160" height="30" as="geometry" />
        </mxCell>
        <mxCell id="ahFYld43kp6xVh79h3Dh-79" value="start_addr" style="text;strokeColor=none;fillColor=none;spacingLeft=4;spacingRight=4;overflow=hidden;rotatable=0;points=[[0,0.5],[1,0.5]];portConstraint=eastwest;fontSize=12;whiteSpace=wrap;html=1;" parent="ahFYld43kp6xVh79h3Dh-76" vertex="1">
          <mxGeometry y="86" width="160" height="30" as="geometry" />
        </mxCell>
        <mxCell id="ahFYld43kp6xVh79h3Dh-80" value="end_addr" style="text;strokeColor=none;fillColor=none;spacingLeft=4;spacingRight=4;overflow=hidden;rotatable=0;points=[[0,0.5],[1,0.5]];portConstraint=eastwest;fontSize=12;whiteSpace=wrap;html=1;" parent="ahFYld43kp6xVh79h3Dh-76" vertex="1">
          <mxGeometry y="116" width="160" height="30" as="geometry" />
        </mxCell>
        <mxCell id="ahFYld43kp6xVh79h3Dh-81" value="offset" style="text;strokeColor=none;fillColor=none;spacingLeft=4;spacingRight=4;overflow=hidden;rotatable=0;points=[[0,0.5],[1,0.5]];portConstraint=eastwest;fontSize=12;whiteSpace=wrap;html=1;" parent="ahFYld43kp6xVh79h3Dh-76" vertex="1">
          <mxGeometry y="146" width="160" height="30" as="geometry" />
        </mxCell>
        <mxCell id="ahFYld43kp6xVh79h3Dh-82" value="count" style="text;strokeColor=none;fillColor=none;spacingLeft=4;spacingRight=4;overflow=hidden;rotatable=0;points=[[0,0.5],[1,0.5]];portConstraint=eastwest;fontSize=12;whiteSpace=wrap;html=1;" parent="ahFYld43kp6xVh79h3Dh-76" vertex="1">
          <mxGeometry y="176" width="160" height="30" as="geometry" />
        </mxCell>
        <mxCell id="ahFYld43kp6xVh79h3Dh-83" value="" style="edgeStyle=orthogonalEdgeStyle;rounded=0;orthogonalLoop=1;jettySize=auto;html=1;entryX=0.006;entryY=0.121;entryDx=0;entryDy=0;entryPerimeter=0;" parent="1" source="ahFYld43kp6xVh79h3Dh-68" target="ahFYld43kp6xVh79h3Dh-76" edge="1">
          <mxGeometry relative="1" as="geometry" />
        </mxCell>
        <mxCell id="ahFYld43kp6xVh79h3Dh-84" value="enlink:gate:http:vpn:subnet" style="edgeLabel;html=1;align=center;verticalAlign=middle;resizable=0;points=[];" parent="ahFYld43kp6xVh79h3Dh-83" vertex="1" connectable="0">
          <mxGeometry x="0.0506" y="-1" relative="1" as="geometry">
            <mxPoint as="offset" />
          </mxGeometry>
        </mxCell>
        <mxCell id="ahFYld43kp6xVh79h3Dh-85" value="enlink:gate:http:vpn:subnet:group" style="edgeLabel;html=1;align=center;verticalAlign=middle;resizable=0;points=[];" parent="ahFYld43kp6xVh79h3Dh-83" vertex="1" connectable="0">
          <mxGeometry x="-0.0673" y="-3" relative="1" as="geometry">
            <mxPoint as="offset" />
          </mxGeometry>
        </mxCell>
        <mxCell id="ahFYld43kp6xVh79h3Dh-86" value="in6_addr" style="swimlane;fontStyle=0;childLayout=stackLayout;horizontal=1;startSize=26;horizontalStack=0;resizeParent=1;resizeParentMax=0;resizeLast=0;collapsible=1;marginBottom=0;align=center;fontSize=14;" parent="1" vertex="1">
          <mxGeometry x="680" y="640" width="160" height="56" as="geometry" />
        </mxCell>
        <mxCell id="ahFYld43kp6xVh79h3Dh-90" value="" style="edgeStyle=orthogonalEdgeStyle;rounded=0;orthogonalLoop=1;jettySize=auto;html=1;entryX=0;entryY=0.25;entryDx=0;entryDy=0;" parent="1" source="ahFYld43kp6xVh79h3Dh-73" target="ahFYld43kp6xVh79h3Dh-86" edge="1">
          <mxGeometry relative="1" as="geometry" />
        </mxCell>
        <mxCell id="ahFYld43kp6xVh79h3Dh-91" value="" style="edgeStyle=orthogonalEdgeStyle;rounded=0;orthogonalLoop=1;jettySize=auto;html=1;" parent="1" source="ahFYld43kp6xVh79h3Dh-92" target="ahFYld43kp6xVh79h3Dh-94" edge="1">
          <mxGeometry relative="1" as="geometry" />
        </mxCell>
        <mxCell id="ahFYld43kp6xVh79h3Dh-92" value="&lt;span style=&quot;font-size: 14px; text-wrap: nowrap;&quot;&gt;***ip_session_map&lt;/span&gt;" style="whiteSpace=wrap;html=1;align=center;" parent="1" vertex="1">
          <mxGeometry x="320" y="40" width="140" height="40" as="geometry" />
        </mxCell>
        <mxCell id="ahFYld43kp6xVh79h3Dh-93" value="" style="edgeStyle=orthogonalEdgeStyle;rounded=0;orthogonalLoop=1;jettySize=auto;html=1;" parent="1" source="ahFYld43kp6xVh79h3Dh-94" target="ahFYld43kp6xVh79h3Dh-96" edge="1">
          <mxGeometry relative="1" as="geometry" />
        </mxCell>
        <mxCell id="ahFYld43kp6xVh79h3Dh-94" value="void **" style="whiteSpace=wrap;html=1;align=center;" parent="1" vertex="1">
          <mxGeometry x="660" y="40" width="100" height="40" as="geometry" />
        </mxCell>
        <mxCell id="ahFYld43kp6xVh79h3Dh-95" value="" style="edgeStyle=orthogonalEdgeStyle;rounded=0;orthogonalLoop=1;jettySize=auto;html=1;entryX=0.006;entryY=0.103;entryDx=0;entryDy=0;entryPerimeter=0;" parent="1" source="ahFYld43kp6xVh79h3Dh-96" target="ahFYld43kp6xVh79h3Dh-58" edge="1">
          <mxGeometry relative="1" as="geometry" />
        </mxCell>
        <mxCell id="ahFYld43kp6xVh79h3Dh-96" value="void *" style="whiteSpace=wrap;html=1;align=center;" parent="1" vertex="1">
          <mxGeometry x="1050" y="40" width="100" height="40" as="geometry" />
        </mxCell>
        <mxCell id="ahFYld43kp6xVh79h3Dh-97" value="" style="edgeStyle=orthogonalEdgeStyle;rounded=0;orthogonalLoop=1;jettySize=auto;html=1;exitX=1;exitY=0.5;exitDx=0;exitDy=0;entryX=0;entryY=0.5;entryDx=0;entryDy=0;" parent="1" source="ahFYld43kp6xVh79h3Dh-82" target="ahFYld43kp6xVh79h3Dh-96" edge="1">
          <mxGeometry relative="1" as="geometry">
            <mxPoint x="500" y="201" as="sourcePoint" />
            <mxPoint x="840" y="30" as="targetPoint" />
            <Array as="points">
              <mxPoint x="837" y="371" />
              <mxPoint x="930" y="371" />
              <mxPoint x="930" y="60" />
            </Array>
          </mxGeometry>
        </mxCell>
        <mxCell id="ahFYld43kp6xVh79h3Dh-98" value="" style="edgeStyle=orthogonalEdgeStyle;rounded=0;orthogonalLoop=1;jettySize=auto;html=1;entryX=0;entryY=0.5;entryDx=0;entryDy=0;exitX=0.994;exitY=0.733;exitDx=0;exitDy=0;exitPerimeter=0;" parent="1" source="ahFYld43kp6xVh79h3Dh-71" target="ahFYld43kp6xVh79h3Dh-94" edge="1">
          <mxGeometry relative="1" as="geometry">
            <mxPoint x="220" y="231" as="sourcePoint" />
            <mxPoint x="410" y="250" as="targetPoint" />
            <Array as="points">
              <mxPoint x="570" y="378" />
              <mxPoint x="570" y="60" />
            </Array>
          </mxGeometry>
        </mxCell>
        <mxCell id="ahFYld43kp6xVh79h3Dh-99" value="gated_availip_t" style="swimlane;fontStyle=0;childLayout=stackLayout;horizontal=1;startSize=26;horizontalStack=0;resizeParent=1;resizeParentMax=0;resizeLast=0;collapsible=1;marginBottom=0;align=center;fontSize=14;" parent="1" vertex="1">
          <mxGeometry x="930" y="450" width="160" height="116" as="geometry" />
        </mxCell>
        <mxCell id="ahFYld43kp6xVh79h3Dh-100" value="node" style="text;strokeColor=none;fillColor=none;spacingLeft=4;spacingRight=4;overflow=hidden;rotatable=0;points=[[0,0.5],[1,0.5]];portConstraint=eastwest;fontSize=12;whiteSpace=wrap;html=1;" parent="ahFYld43kp6xVh79h3Dh-99" vertex="1">
          <mxGeometry y="26" width="160" height="30" as="geometry" />
        </mxCell>
        <mxCell id="ahFYld43kp6xVh79h3Dh-101" value="queue" style="text;strokeColor=none;fillColor=none;spacingLeft=4;spacingRight=4;overflow=hidden;rotatable=0;points=[[0,0.5],[1,0.5]];portConstraint=eastwest;fontSize=12;whiteSpace=wrap;html=1;" parent="ahFYld43kp6xVh79h3Dh-99" vertex="1">
          <mxGeometry y="56" width="160" height="30" as="geometry" />
        </mxCell>
        <mxCell id="ahFYld43kp6xVh79h3Dh-102" value="addr" style="text;strokeColor=none;fillColor=none;spacingLeft=4;spacingRight=4;overflow=hidden;rotatable=0;points=[[0,0.5],[1,0.5]];portConstraint=eastwest;fontSize=12;whiteSpace=wrap;html=1;" parent="ahFYld43kp6xVh79h3Dh-99" vertex="1">
          <mxGeometry y="86" width="160" height="30" as="geometry" />
        </mxCell>
        <mxCell id="ahFYld43kp6xVh79h3Dh-103" value="" style="edgeStyle=orthogonalEdgeStyle;rounded=0;orthogonalLoop=1;jettySize=auto;html=1;entryX=0.006;entryY=0.121;entryDx=0;entryDy=0;exitX=1;exitY=0.5;exitDx=0;exitDy=0;entryPerimeter=0;" parent="1" source="ahFYld43kp6xVh79h3Dh-70" target="ahFYld43kp6xVh79h3Dh-99" edge="1">
          <mxGeometry relative="1" as="geometry">
            <mxPoint x="220" y="231" as="sourcePoint" />
            <mxPoint x="410" y="250" as="targetPoint" />
            <Array as="points">
              <mxPoint x="620" y="341" />
              <mxPoint x="620" y="464" />
            </Array>
          </mxGeometry>
        </mxCell>
        <mxCell id="ahFYld43kp6xVh79h3Dh-104" value="gated_ipool_user_t" style="swimlane;fontStyle=0;childLayout=stackLayout;horizontal=1;startSize=26;horizontalStack=0;resizeParent=1;resizeParentMax=0;resizeLast=0;collapsible=1;marginBottom=0;align=center;fontSize=14;" parent="1" vertex="1">
          <mxGeometry x="930" y="-300" width="160" height="206" as="geometry" />
        </mxCell>
        <mxCell id="ahFYld43kp6xVh79h3Dh-105" value="node" style="text;strokeColor=none;fillColor=none;spacingLeft=4;spacingRight=4;overflow=hidden;rotatable=0;points=[[0,0.5],[1,0.5]];portConstraint=eastwest;fontSize=12;whiteSpace=wrap;html=1;" parent="ahFYld43kp6xVh79h3Dh-104" vertex="1">
          <mxGeometry y="26" width="160" height="30" as="geometry" />
        </mxCell>
        <mxCell id="ahFYld43kp6xVh79h3Dh-106" value="session" style="text;strokeColor=none;fillColor=none;spacingLeft=4;spacingRight=4;overflow=hidden;rotatable=0;points=[[0,0.5],[1,0.5]];portConstraint=eastwest;fontSize=12;whiteSpace=wrap;html=1;" parent="ahFYld43kp6xVh79h3Dh-104" vertex="1">
          <mxGeometry y="56" width="160" height="30" as="geometry" />
        </mxCell>
        <mxCell id="ahFYld43kp6xVh79h3Dh-107" value="username" style="text;strokeColor=none;fillColor=none;spacingLeft=4;spacingRight=4;overflow=hidden;rotatable=0;points=[[0,0.5],[1,0.5]];portConstraint=eastwest;fontSize=12;whiteSpace=wrap;html=1;" parent="ahFYld43kp6xVh79h3Dh-104" vertex="1">
          <mxGeometry y="86" width="160" height="30" as="geometry" />
        </mxCell>
        <mxCell id="ahFYld43kp6xVh79h3Dh-108" value="worker_idx" style="text;strokeColor=none;fillColor=none;spacingLeft=4;spacingRight=4;overflow=hidden;rotatable=0;points=[[0,0.5],[1,0.5]];portConstraint=eastwest;fontSize=12;whiteSpace=wrap;html=1;" parent="ahFYld43kp6xVh79h3Dh-104" vertex="1">
          <mxGeometry y="116" width="160" height="30" as="geometry" />
        </mxCell>
        <mxCell id="ahFYld43kp6xVh79h3Dh-109" value="queue" style="text;strokeColor=none;fillColor=none;spacingLeft=4;spacingRight=4;overflow=hidden;rotatable=0;points=[[0,0.5],[1,0.5]];portConstraint=eastwest;fontSize=12;whiteSpace=wrap;html=1;" parent="ahFYld43kp6xVh79h3Dh-104" vertex="1">
          <mxGeometry y="146" width="160" height="30" as="geometry" />
        </mxCell>
        <mxCell id="ahFYld43kp6xVh79h3Dh-110" value="pool_idx" style="text;strokeColor=none;fillColor=none;spacingLeft=4;spacingRight=4;overflow=hidden;rotatable=0;points=[[0,0.5],[1,0.5]];portConstraint=eastwest;fontSize=12;whiteSpace=wrap;html=1;" parent="ahFYld43kp6xVh79h3Dh-104" vertex="1">
          <mxGeometry y="176" width="160" height="30" as="geometry" />
        </mxCell>
        <mxCell id="ahFYld43kp6xVh79h3Dh-111" value="" style="edgeStyle=orthogonalEdgeStyle;rounded=0;orthogonalLoop=1;jettySize=auto;html=1;entryX=0.5;entryY=0;entryDx=0;entryDy=0;exitX=1;exitY=0.5;exitDx=0;exitDy=0;" parent="1" source="ahFYld43kp6xVh79h3Dh-106" target="ahFYld43kp6xVh79h3Dh-58" edge="1">
          <mxGeometry relative="1" as="geometry">
            <mxPoint x="220" y="231" as="sourcePoint" />
            <mxPoint x="410" y="250" as="targetPoint" />
          </mxGeometry>
        </mxCell>
        <mxCell id="ahFYld43kp6xVh79h3Dh-112" value="" style="edgeStyle=orthogonalEdgeStyle;rounded=0;orthogonalLoop=1;jettySize=auto;html=1;exitX=1;exitY=0.5;exitDx=0;exitDy=0;entryX=0;entryY=0.5;entryDx=0;entryDy=0;" parent="1" source="ahFYld43kp6xVh79h3Dh-69" target="ahFYld43kp6xVh79h3Dh-105" edge="1">
          <mxGeometry relative="1" as="geometry">
            <mxPoint x="220" y="231" as="sourcePoint" />
            <mxPoint x="840" y="-210" as="targetPoint" />
            <Array as="points">
              <mxPoint x="520" y="311" />
              <mxPoint x="520" y="-260" />
              <mxPoint x="760" y="-260" />
              <mxPoint x="760" y="-259" />
            </Array>
          </mxGeometry>
        </mxCell>
        <mxCell id="ahFYld43kp6xVh79h3Dh-113" value="" style="edgeStyle=orthogonalEdgeStyle;rounded=0;orthogonalLoop=1;jettySize=auto;html=1;exitX=1;exitY=0.5;exitDx=0;exitDy=0;entryX=0;entryY=0.5;entryDx=0;entryDy=0;" parent="1" source="ahFYld43kp6xVh79h3Dh-74" target="ahFYld43kp6xVh79h3Dh-109" edge="1">
          <mxGeometry relative="1" as="geometry">
            <mxPoint x="490" y="321" as="sourcePoint" />
            <mxPoint x="940" y="-249" as="targetPoint" />
            <Array as="points">
              <mxPoint x="530" y="461" />
              <mxPoint x="530" y="-139" />
            </Array>
          </mxGeometry>
        </mxCell>
        <mxCell id="ahFYld43kp6xVh79h3Dh-114" value="" style="edgeStyle=orthogonalEdgeStyle;rounded=0;orthogonalLoop=1;jettySize=auto;html=1;exitX=1;exitY=0.5;exitDx=0;exitDy=0;entryX=0.5;entryY=0;entryDx=0;entryDy=0;" parent="1" source="ahFYld43kp6xVh79h3Dh-78" target="ahFYld43kp6xVh79h3Dh-99" edge="1">
          <mxGeometry relative="1" as="geometry">
            <mxPoint x="920" y="231" as="sourcePoint" />
            <mxPoint x="1070" y="420" as="targetPoint" />
            <Array as="points">
              <mxPoint x="1010" y="281" />
            </Array>
          </mxGeometry>
        </mxCell>
        <mxCell id="VzqfOitDqZEZQC-ATVFe-3" value="v01_msg_header_t" style="swimlane;fontStyle=0;childLayout=stackLayout;horizontal=1;startSize=26;horizontalStack=0;resizeParent=1;resizeParentMax=0;resizeLast=0;collapsible=1;marginBottom=0;align=center;fontSize=14;" vertex="1" parent="1">
          <mxGeometry x="660" y="890" width="160" height="146" as="geometry" />
        </mxCell>
        <mxCell id="VzqfOitDqZEZQC-ATVFe-4" value="version" style="text;strokeColor=none;fillColor=none;spacingLeft=4;spacingRight=4;overflow=hidden;rotatable=0;points=[[0,0.5],[1,0.5]];portConstraint=eastwest;fontSize=12;whiteSpace=wrap;html=1;" vertex="1" parent="VzqfOitDqZEZQC-ATVFe-3">
          <mxGeometry y="26" width="160" height="30" as="geometry" />
        </mxCell>
        <mxCell id="VzqfOitDqZEZQC-ATVFe-5" value="type" style="text;strokeColor=none;fillColor=none;spacingLeft=4;spacingRight=4;overflow=hidden;rotatable=0;points=[[0,0.5],[1,0.5]];portConstraint=eastwest;fontSize=12;whiteSpace=wrap;html=1;" vertex="1" parent="VzqfOitDqZEZQC-ATVFe-3">
          <mxGeometry y="56" width="160" height="30" as="geometry" />
        </mxCell>
        <mxCell id="VzqfOitDqZEZQC-ATVFe-6" value="length" style="text;strokeColor=none;fillColor=none;spacingLeft=4;spacingRight=4;overflow=hidden;rotatable=0;points=[[0,0.5],[1,0.5]];portConstraint=eastwest;fontSize=12;whiteSpace=wrap;html=1;" vertex="1" parent="VzqfOitDqZEZQC-ATVFe-3">
          <mxGeometry y="86" width="160" height="30" as="geometry" />
        </mxCell>
        <mxCell id="VzqfOitDqZEZQC-ATVFe-7" value="xid" style="text;strokeColor=none;fillColor=none;spacingLeft=4;spacingRight=4;overflow=hidden;rotatable=0;points=[[0,0.5],[1,0.5]];portConstraint=eastwest;fontSize=12;whiteSpace=wrap;html=1;" vertex="1" parent="VzqfOitDqZEZQC-ATVFe-3">
          <mxGeometry y="116" width="160" height="30" as="geometry" />
        </mxCell>
        <mxCell id="VzqfOitDqZEZQC-ATVFe-8" value="v01_dgmsg_t" style="swimlane;fontStyle=0;childLayout=stackLayout;horizontal=1;startSize=26;horizontalStack=0;resizeParent=1;resizeParentMax=0;resizeLast=0;collapsible=1;marginBottom=0;align=center;fontSize=14;" vertex="1" parent="1">
          <mxGeometry x="660" y="1036" width="160" height="116" as="geometry" />
        </mxCell>
        <mxCell id="VzqfOitDqZEZQC-ATVFe-9" value="type" style="text;strokeColor=none;fillColor=none;spacingLeft=4;spacingRight=4;overflow=hidden;rotatable=0;points=[[0,0.5],[1,0.5]];portConstraint=eastwest;fontSize=12;whiteSpace=wrap;html=1;" vertex="1" parent="VzqfOitDqZEZQC-ATVFe-8">
          <mxGeometry y="26" width="160" height="30" as="geometry" />
        </mxCell>
        <mxCell id="VzqfOitDqZEZQC-ATVFe-10" value="unused" style="text;strokeColor=none;fillColor=none;spacingLeft=4;spacingRight=4;overflow=hidden;rotatable=0;points=[[0,0.5],[1,0.5]];portConstraint=eastwest;fontSize=12;whiteSpace=wrap;html=1;" vertex="1" parent="VzqfOitDqZEZQC-ATVFe-8">
          <mxGeometry y="56" width="160" height="30" as="geometry" />
        </mxCell>
        <mxCell id="VzqfOitDqZEZQC-ATVFe-11" value="code" style="text;strokeColor=none;fillColor=none;spacingLeft=4;spacingRight=4;overflow=hidden;rotatable=0;points=[[0,0.5],[1,0.5]];portConstraint=eastwest;fontSize=12;whiteSpace=wrap;html=1;" vertex="1" parent="VzqfOitDqZEZQC-ATVFe-8">
          <mxGeometry y="86" width="160" height="30" as="geometry" />
        </mxCell>
        <mxCell id="VzqfOitDqZEZQC-ATVFe-12" value="iphdr" style="swimlane;fontStyle=0;childLayout=stackLayout;horizontal=1;startSize=26;horizontalStack=0;resizeParent=1;resizeParentMax=0;resizeLast=0;collapsible=1;marginBottom=0;align=center;fontSize=14;" vertex="1" parent="1">
          <mxGeometry x="660" y="1152" width="160" height="356" as="geometry" />
        </mxCell>
        <mxCell id="VzqfOitDqZEZQC-ATVFe-13" value="ihl" style="text;strokeColor=none;fillColor=none;spacingLeft=4;spacingRight=4;overflow=hidden;rotatable=0;points=[[0,0.5],[1,0.5]];portConstraint=eastwest;fontSize=12;whiteSpace=wrap;html=1;" vertex="1" parent="VzqfOitDqZEZQC-ATVFe-12">
          <mxGeometry y="26" width="160" height="30" as="geometry" />
        </mxCell>
        <mxCell id="VzqfOitDqZEZQC-ATVFe-14" value="version" style="text;strokeColor=none;fillColor=none;spacingLeft=4;spacingRight=4;overflow=hidden;rotatable=0;points=[[0,0.5],[1,0.5]];portConstraint=eastwest;fontSize=12;whiteSpace=wrap;html=1;" vertex="1" parent="VzqfOitDqZEZQC-ATVFe-12">
          <mxGeometry y="56" width="160" height="30" as="geometry" />
        </mxCell>
        <mxCell id="VzqfOitDqZEZQC-ATVFe-15" value="tos" style="text;strokeColor=none;fillColor=none;spacingLeft=4;spacingRight=4;overflow=hidden;rotatable=0;points=[[0,0.5],[1,0.5]];portConstraint=eastwest;fontSize=12;whiteSpace=wrap;html=1;" vertex="1" parent="VzqfOitDqZEZQC-ATVFe-12">
          <mxGeometry y="86" width="160" height="30" as="geometry" />
        </mxCell>
        <mxCell id="VzqfOitDqZEZQC-ATVFe-21" value="tot_len" style="text;strokeColor=none;fillColor=none;spacingLeft=4;spacingRight=4;overflow=hidden;rotatable=0;points=[[0,0.5],[1,0.5]];portConstraint=eastwest;fontSize=12;whiteSpace=wrap;html=1;" vertex="1" parent="VzqfOitDqZEZQC-ATVFe-12">
          <mxGeometry y="116" width="160" height="30" as="geometry" />
        </mxCell>
        <mxCell id="VzqfOitDqZEZQC-ATVFe-20" value="id" style="text;strokeColor=none;fillColor=none;spacingLeft=4;spacingRight=4;overflow=hidden;rotatable=0;points=[[0,0.5],[1,0.5]];portConstraint=eastwest;fontSize=12;whiteSpace=wrap;html=1;" vertex="1" parent="VzqfOitDqZEZQC-ATVFe-12">
          <mxGeometry y="146" width="160" height="30" as="geometry" />
        </mxCell>
        <mxCell id="VzqfOitDqZEZQC-ATVFe-19" value="frag_off" style="text;strokeColor=none;fillColor=none;spacingLeft=4;spacingRight=4;overflow=hidden;rotatable=0;points=[[0,0.5],[1,0.5]];portConstraint=eastwest;fontSize=12;whiteSpace=wrap;html=1;" vertex="1" parent="VzqfOitDqZEZQC-ATVFe-12">
          <mxGeometry y="176" width="160" height="30" as="geometry" />
        </mxCell>
        <mxCell id="VzqfOitDqZEZQC-ATVFe-18" value="ttl" style="text;strokeColor=none;fillColor=none;spacingLeft=4;spacingRight=4;overflow=hidden;rotatable=0;points=[[0,0.5],[1,0.5]];portConstraint=eastwest;fontSize=12;whiteSpace=wrap;html=1;" vertex="1" parent="VzqfOitDqZEZQC-ATVFe-12">
          <mxGeometry y="206" width="160" height="30" as="geometry" />
        </mxCell>
        <mxCell id="VzqfOitDqZEZQC-ATVFe-17" value="protocol" style="text;strokeColor=none;fillColor=none;spacingLeft=4;spacingRight=4;overflow=hidden;rotatable=0;points=[[0,0.5],[1,0.5]];portConstraint=eastwest;fontSize=12;whiteSpace=wrap;html=1;" vertex="1" parent="VzqfOitDqZEZQC-ATVFe-12">
          <mxGeometry y="236" width="160" height="30" as="geometry" />
        </mxCell>
        <mxCell id="VzqfOitDqZEZQC-ATVFe-16" value="check" style="text;strokeColor=none;fillColor=none;spacingLeft=4;spacingRight=4;overflow=hidden;rotatable=0;points=[[0,0.5],[1,0.5]];portConstraint=eastwest;fontSize=12;whiteSpace=wrap;html=1;" vertex="1" parent="VzqfOitDqZEZQC-ATVFe-12">
          <mxGeometry y="266" width="160" height="30" as="geometry" />
        </mxCell>
        <mxCell id="VzqfOitDqZEZQC-ATVFe-23" value="saddr" style="text;strokeColor=none;fillColor=none;spacingLeft=4;spacingRight=4;overflow=hidden;rotatable=0;points=[[0,0.5],[1,0.5]];portConstraint=eastwest;fontSize=12;whiteSpace=wrap;html=1;" vertex="1" parent="VzqfOitDqZEZQC-ATVFe-12">
          <mxGeometry y="296" width="160" height="30" as="geometry" />
        </mxCell>
        <mxCell id="VzqfOitDqZEZQC-ATVFe-22" value="daddr" style="text;strokeColor=none;fillColor=none;spacingLeft=4;spacingRight=4;overflow=hidden;rotatable=0;points=[[0,0.5],[1,0.5]];portConstraint=eastwest;fontSize=12;whiteSpace=wrap;html=1;" vertex="1" parent="VzqfOitDqZEZQC-ATVFe-12">
          <mxGeometry y="326" width="160" height="30" as="geometry" />
        </mxCell>
        <mxCell id="VzqfOitDqZEZQC-ATVFe-27" value="gated_session_vip_t" style="swimlane;fontStyle=0;childLayout=stackLayout;horizontal=1;startSize=26;horizontalStack=0;resizeParent=1;resizeParentMax=0;resizeLast=0;collapsible=1;marginBottom=0;align=center;fontSize=14;" vertex="1" parent="1">
          <mxGeometry x="280" y="-600" width="160" height="116" as="geometry" />
        </mxCell>
        <mxCell id="VzqfOitDqZEZQC-ATVFe-28" value="session_vip_rbtree" style="text;strokeColor=none;fillColor=none;spacingLeft=4;spacingRight=4;overflow=hidden;rotatable=0;points=[[0,0.5],[1,0.5]];portConstraint=eastwest;fontSize=12;whiteSpace=wrap;html=1;" vertex="1" parent="VzqfOitDqZEZQC-ATVFe-27">
          <mxGeometry y="26" width="160" height="30" as="geometry" />
        </mxCell>
        <mxCell id="VzqfOitDqZEZQC-ATVFe-29" value="session_vip_sentinel" style="text;strokeColor=none;fillColor=none;spacingLeft=4;spacingRight=4;overflow=hidden;rotatable=0;points=[[0,0.5],[1,0.5]];portConstraint=eastwest;fontSize=12;whiteSpace=wrap;html=1;" vertex="1" parent="VzqfOitDqZEZQC-ATVFe-27">
          <mxGeometry y="56" width="160" height="30" as="geometry" />
        </mxCell>
        <mxCell id="VzqfOitDqZEZQC-ATVFe-30" value="shpool" style="text;strokeColor=none;fillColor=none;spacingLeft=4;spacingRight=4;overflow=hidden;rotatable=0;points=[[0,0.5],[1,0.5]];portConstraint=eastwest;fontSize=12;whiteSpace=wrap;html=1;" vertex="1" parent="VzqfOitDqZEZQC-ATVFe-27">
          <mxGeometry y="86" width="160" height="30" as="geometry" />
        </mxCell>
        <mxCell id="VzqfOitDqZEZQC-ATVFe-31" value="gated_session_vip_record_t" style="swimlane;fontStyle=0;childLayout=stackLayout;horizontal=1;startSize=26;horizontalStack=0;resizeParent=1;resizeParentMax=0;resizeLast=0;collapsible=1;marginBottom=0;align=center;fontSize=14;" vertex="1" parent="1">
          <mxGeometry x="640" y="-600" width="200" height="206" as="geometry" />
        </mxCell>
        <mxCell id="VzqfOitDqZEZQC-ATVFe-32" value="node" style="text;strokeColor=none;fillColor=none;spacingLeft=4;spacingRight=4;overflow=hidden;rotatable=0;points=[[0,0.5],[1,0.5]];portConstraint=eastwest;fontSize=12;whiteSpace=wrap;html=1;" vertex="1" parent="VzqfOitDqZEZQC-ATVFe-31">
          <mxGeometry y="26" width="200" height="30" as="geometry" />
        </mxCell>
        <mxCell id="VzqfOitDqZEZQC-ATVFe-33" value="sessionid" style="text;strokeColor=none;fillColor=none;spacingLeft=4;spacingRight=4;overflow=hidden;rotatable=0;points=[[0,0.5],[1,0.5]];portConstraint=eastwest;fontSize=12;whiteSpace=wrap;html=1;" vertex="1" parent="VzqfOitDqZEZQC-ATVFe-31">
          <mxGeometry y="56" width="200" height="30" as="geometry" />
        </mxCell>
        <mxCell id="VzqfOitDqZEZQC-ATVFe-34" value="vip" style="text;strokeColor=none;fillColor=none;spacingLeft=4;spacingRight=4;overflow=hidden;rotatable=0;points=[[0,0.5],[1,0.5]];portConstraint=eastwest;fontSize=12;whiteSpace=wrap;html=1;" vertex="1" parent="VzqfOitDqZEZQC-ATVFe-31">
          <mxGeometry y="86" width="200" height="30" as="geometry" />
        </mxCell>
        <mxCell id="VzqfOitDqZEZQC-ATVFe-37" value="workid" style="text;strokeColor=none;fillColor=none;spacingLeft=4;spacingRight=4;overflow=hidden;rotatable=0;points=[[0,0.5],[1,0.5]];portConstraint=eastwest;fontSize=12;whiteSpace=wrap;html=1;" vertex="1" parent="VzqfOitDqZEZQC-ATVFe-31">
          <mxGeometry y="116" width="200" height="30" as="geometry" />
        </mxCell>
        <mxCell id="VzqfOitDqZEZQC-ATVFe-36" value="subpool_index" style="text;strokeColor=none;fillColor=none;spacingLeft=4;spacingRight=4;overflow=hidden;rotatable=0;points=[[0,0.5],[1,0.5]];portConstraint=eastwest;fontSize=12;whiteSpace=wrap;html=1;" vertex="1" parent="VzqfOitDqZEZQC-ATVFe-31">
          <mxGeometry y="146" width="200" height="30" as="geometry" />
        </mxCell>
        <mxCell id="VzqfOitDqZEZQC-ATVFe-35" value="subpool6_index" style="text;strokeColor=none;fillColor=none;spacingLeft=4;spacingRight=4;overflow=hidden;rotatable=0;points=[[0,0.5],[1,0.5]];portConstraint=eastwest;fontSize=12;whiteSpace=wrap;html=1;" vertex="1" parent="VzqfOitDqZEZQC-ATVFe-31">
          <mxGeometry y="176" width="200" height="30" as="geometry" />
        </mxCell>
        <mxCell id="VzqfOitDqZEZQC-ATVFe-38" value="" style="edgeStyle=orthogonalEdgeStyle;rounded=0;orthogonalLoop=1;jettySize=auto;html=1;exitX=1;exitY=0.5;exitDx=0;exitDy=0;entryX=0;entryY=0.5;entryDx=0;entryDy=0;" edge="1" parent="1" source="VzqfOitDqZEZQC-ATVFe-28" target="VzqfOitDqZEZQC-ATVFe-32">
          <mxGeometry relative="1" as="geometry">
            <mxPoint x="490" y="-420" as="sourcePoint" />
            <mxPoint x="650" y="-180" as="targetPoint" />
            <Array as="points">
              <mxPoint x="590" y="-559" />
              <mxPoint x="590" y="-559" />
            </Array>
          </mxGeometry>
        </mxCell>
      </root>
    </mxGraphModel>
  </diagram>
</mxfile>
